<?xml version="1.0" standalone="no"?>
<!DOCTYPE svg PUBLIC "-//W3C//DTD SVG 20010904//EN"
 "http://www.w3.org/TR/2001/REC-SVG-20010904/DTD/svg10.dtd">
<svg version="1.0" xmlns="http://www.w3.org/2000/svg"
 width="560.000000pt" height="560.000000pt" viewBox="0 0 560.000000 560.000000"
 preserveAspectRatio="xMidYMid meet">
<metadata>
Created by potrace 1.11, written by Peter Selinger 2001-2013
</metadata>
<g transform="translate(0.000000,560.000000) scale(0.100000,-0.100000)"
fill="#000000" stroke="none">
<path d="M1680 5565 c-21 -35 -23 -35 -71 -30 -27 3 -62 11 -77 17 -15 6 -52
9 -82 8 -30 -1 -71 -3 -90 -4 -29 -1 -36 -5 -38 -25 -5 -34 22 -51 82 -51 28
0 58 -5 66 -11 11 -7 -19 -9 -100 -8 -115 2 -163 -4 -189 -25 -12 -9 -13 -8
-7 3 7 10 2 12 -25 6 -60 -12 -83 -29 -118 -82 -34 -51 -36 -52 -54 -35 -18
16 -19 16 -16 -18 l4 -35 -62 -7 c-64 -7 -108 -30 -116 -60 -4 -14 1 -18 24
-18 29 0 36 -13 20 -38 -6 -10 -34 -13 -97 -13 -79 1 -95 -2 -141 -26 -29 -16
-53 -31 -53 -35 0 -5 61 -8 136 -8 124 0 135 -2 132 -17 -2 -12 -12 -17 -28
-16 -14 0 -86 -3 -160 -8 -74 -5 -143 -10 -152 -10 -24 0 -22 -11 6 -38 32
-30 34 -89 2 -96 -11 -3 -61 -14 -111 -25 -49 -10 -115 -28 -145 -38 l-55 -19
-3 -191 c-2 -169 -1 -191 13 -186 18 7 45 -12 45 -32 0 -8 -13 -17 -30 -20
l-30 -6 0 -145 c0 -79 4 -142 8 -139 11 7 25 -4 50 -40 l21 -31 -39 -22 -40
-22 0 -101 c0 -77 3 -99 13 -95 7 2 30 -10 52 -29 l40 -33 -26 -27 c-26 -25
-27 -26 -53 -9 l-26 17 0 -77 c0 -62 3 -75 13 -67 9 8 25 3 60 -18 50 -32 52
-44 11 -73 -20 -15 -31 -17 -54 -8 l-30 10 0 -324 0 -325 42 48 c24 26 43 48
43 49 1 1 25 0 53 -4 53 -6 70 -26 33 -38 -26 -8 -32 -68 -13 -130 20 -68 26
-72 50 -31 15 26 28 36 46 36 36 0 39 -13 16 -62 l-21 -43 20 -47 c18 -38 25
-45 42 -41 12 3 24 1 28 -6 4 -6 46 -18 94 -25 107 -18 111 -20 93 -54 -12
-24 -11 -29 12 -64 25 -38 42 -49 42 -25 0 6 11 36 25 64 21 47 28 53 55 53
29 0 30 -2 30 -44 0 -24 -3 -58 -6 -75 -6 -26 -10 -30 -29 -25 -13 3 -33 1
-45 -6 -17 -9 -21 -19 -18 -48 l3 -37 100 -5 c98 -5 100 -5 97 -29 -3 -16 7
-34 29 -57 18 -19 36 -34 40 -34 5 0 13 27 20 60 11 56 13 60 40 60 35 0 40
-8 46 -81 6 -57 6 -59 32 -53 47 10 50 13 57 48 9 49 31 45 45 -6 32 -121 142
-299 203 -329 12 -6 6 1 -11 16 -31 25 -44 55 -25 55 5 0 33 -23 62 -52 43
-41 52 -47 46 -27 -18 59 -45 176 -46 197 0 34 31 27 64 -15 16 -20 23 -33 15
-29 -8 4 6 -11 31 -34 25 -23 38 -38 30 -34 -8 4 2 -8 23 -28 20 -19 37 -39
37 -46 0 -6 14 -19 30 -29 17 -9 30 -23 30 -30 0 -7 6 -13 13 -13 6 0 29 -19
50 -42 21 -24 35 -36 31 -28 -4 8 7 0 25 -18 31 -31 44 -37 66 -32 5 1 7 -2 3
-6 -5 -4 20 -26 55 -49 l62 -42 30 -94 30 -94 9 58 c9 56 10 58 35 52 14 -4
28 -11 29 -16 2 -5 9 -15 16 -22 7 -6 15 -20 19 -30 4 -10 12 -15 18 -11 6 3
15 0 20 -7 6 -10 9 -6 9 14 0 22 4 27 24 27 14 0 31 -7 40 -15 8 -8 20 -15 27
-15 21 0 69 -52 69 -74 0 -38 -21 -96 -43 -121 -20 -23 -34 -27 -152 -41 -71
-8 -184 -13 -250 -13 -132 2 -141 6 -168 71 -14 34 -19 37 -51 34 -20 -1 -38
-5 -42 -8 -3 -4 -29 7 -57 24 -140 83 -255 118 -384 119 -110 0 -189 -21 -260
-68 -68 -45 -160 -158 -207 -255 -34 -70 -86 -256 -121 -438 -30 -154 -131
-519 -149 -537 -9 -10 -25 -4 -76 27 -36 22 -69 40 -73 40 -5 0 -22 -13 -38
-30 -26 -25 -30 -36 -28 -75 l3 -45 2027 0 2028 0 8 38 c17 77 9 223 -16 297
-48 141 -86 199 -174 259 -76 53 -169 75 -367 87 -93 5 -187 17 -215 25 -109
35 -347 187 -435 279 l-35 36 3 86 c2 67 7 92 23 114 26 37 39 37 33 1 l-4
-27 20 25 c11 14 20 29 20 34 0 5 14 6 32 2 26 -5 39 -1 69 24 21 16 42 30 46
30 5 0 25 16 43 35 33 34 89 69 97 62 2 -2 -8 -29 -22 -61 -14 -31 -25 -58
-25 -60 0 -2 16 1 35 7 27 8 54 33 111 104 42 53 82 93 92 93 9 0 41 16 69 35
61 41 64 41 87 16 23 -25 13 -44 -61 -111 -32 -29 -48 -46 -37 -38 12 7 58 48
104 91 112 106 130 91 60 -48 -61 -123 -47 -113 26 18 38 67 72 117 80 117 10
0 13 -6 10 -18 -5 -13 1 -22 19 -30 37 -17 41 -16 64 23 20 34 51 48 51 22 0
-8 11 -24 24 -36 l25 -23 51 43 c54 46 84 56 106 38 11 -9 12 -15 3 -26 -8 -9
-9 -17 -2 -24 6 -6 33 4 80 31 38 22 75 40 81 40 6 0 12 -21 14 -48 3 -45 5
-47 34 -50 31 -3 32 -2 38 52 4 31 11 58 16 61 4 3 31 -5 60 -17 61 -25 64
-23 81 65 7 32 15 60 19 62 4 3 47 -9 96 -25 48 -17 91 -27 95 -23 4 5 10 22
14 40 6 28 3 34 -24 48 -25 13 -31 22 -31 50 0 18 4 37 10 40 19 11 95 -16
117 -42 20 -24 25 -26 55 -16 25 7 46 6 78 -3 29 -9 48 -10 56 -3 19 16 23 61
7 86 -8 12 -13 29 -10 37 5 12 14 12 64 -1 32 -8 64 -19 71 -25 9 -8 12 262
12 1346 l0 1357 -22 8 c-13 5 -26 7 -31 4 -12 -7 -43 -83 -46 -115 -1 -8 -17
-5 -53 10 -25 10 -27 16 -26 64 1 77 -1 88 -14 88 -6 0 -19 7 -29 16 -17 15
-19 15 -34 0 -23 -23 -45 -20 -40 5 2 11 0 32 -6 46 -8 23 -13 25 -60 21 -45
-3 -50 -1 -56 19 -6 26 3 57 14 50 5 -3 31 -7 58 -11 28 -3 62 -8 76 -11 17
-3 31 1 39 10 7 8 10 15 7 15 -3 0 -1 16 3 35 6 28 5 35 -9 39 -26 7 -90 16
-161 21 -102 8 -165 16 -170 24 -3 3 -32 6 -64 6 l-60 0 -13 50 c-7 28 -10 58
-7 67 3 9 -2 20 -9 25 -12 7 -30 70 -62 221 -3 12 -7 32 -10 45 -3 12 -9 33
-14 47 -16 44 -22 65 -19 65 6 0 -48 82 -71 107 l-25 27 -1309 0 c-1146 0
-1309 -1 -1314 -14 -3 -9 0 -21 5 -28 8 -9 5 -20 -11 -40 -19 -24 -27 -27 -55
-21 -25 5 -31 11 -27 24 4 14 -5 24 -35 41 -22 12 -40 26 -40 31 0 23 -41 4
-60 -27z m-1338 -825 c-5 -32 0 -28 -71 -50 -36 -11 -61 -14 -61 -8 0 6 -7 7
-15 4 -16 -6 -33 19 -21 31 11 11 141 53 156 50 10 -2 14 -11 12 -27z m22
-602 c23 -33 20 -44 -18 -66 l-34 -20 -26 36 -26 37 33 17 c43 23 53 22 71 -4z
m34 -488 c39 -24 40 -33 3 -59 -37 -27 -49 -26 -86 4 l-30 25 24 20 c12 11 27
17 32 14 5 -3 9 0 9 5 0 16 11 14 48 -9z"/>
<path d="M3700 1339 c-22 -18 -22 -19 -3 -10 12 6 25 16 28 21 9 15 3 12 -25
-11z"/>
<path d="M4998 1233 c7 -3 16 -2 19 1 4 3 -2 6 -13 5 -11 0 -14 -3 -6 -6z"/>
<path d="M4420 92 c0 -2 20 -23 44 -48 42 -41 88 -59 81 -32 -18 82 -13 76
-71 80 -30 1 -54 2 -54 0z"/>
</g>
</svg>
